<svg width="65" height="65" viewBox="0 0 65 65" fill="none" xmlns="http://www.w3.org/2000/svg">
<path fill-rule="evenodd" clip-rule="evenodd" d="M32.5 65C50.4493 65 65 50.4493 65 32.5C65 14.5507 50.4493 0 32.5 0C14.5507 0 0 14.5507 0 32.5C0 50.4493 14.5507 65 32.5 65Z" fill="#FFE6DF"/>
<path fill-rule="evenodd" clip-rule="evenodd" d="M40.5 26.5H39.5V34.5C39.5 35.05 39.05 35.5 38.5 35.5H26.5V36.5C26.5 37.6 27.4 38.5 28.5 38.5H38.5L42.5 42.5V28.5C42.5 27.4 41.6 26.5 40.5 26.5ZM37.5 31.5V24.5C37.5 23.4 36.6 22.5 35.5 22.5H24.5C23.4 22.5 22.5 23.4 22.5 24.5V37.5L26.5 33.5H35.5C36.6 33.5 37.5 32.6 37.5 31.5Z" fill="#FF6D43"/>
</svg>
