<svg width="100" height="24" viewBox="0 0 100 24" fill="none" xmlns="http://www.w3.org/2000/svg">
<path fill-rule="evenodd" clip-rule="evenodd" d="M14.6954 2.81092C15.0225 3.12185 15.4376 3.27731 15.9409 3.27731C16.4441 3.27731 16.8592 3.12185 17.1864 2.81092C17.5135 2.5 17.677 2.10925 17.677 1.63866C17.677 1.16806 17.5135 0.777313 17.1864 0.466387C16.8592 0.155461 16.4441 0 15.9409 0C15.4376 0 15.0225 0.155461 14.6954 0.466387C14.3682 0.777313 14.2047 1.16806 14.2047 1.63866C14.2047 2.10925 14.3682 2.5 14.6954 2.81092ZM3.12004 17.7731C4.09296 18.2269 5.22522 18.4538 6.51686 18.4538C7.84204 18.4538 8.95753 18.2143 9.86335 17.7353C10.7692 17.2563 11.4485 16.6345 11.9014 15.8697C12.3544 15.105 12.5808 14.2773 12.5808 13.3866C12.5808 12.3781 12.3753 11.5462 11.9643 10.8908C11.5534 10.2353 11.004 9.70588 10.3163 9.30252C9.62851 8.89916 8.84851 8.55462 7.97623 8.26891L5.56072 7.42437C4.85619 7.18067 4.30264 6.87395 3.90005 6.5042C3.49746 6.13445 3.29617 5.60505 3.29617 4.91597C3.29617 4.14285 3.56875 3.53782 4.11392 3.10084C4.65909 2.66386 5.35103 2.45378 6.18976 2.47059C6.84396 2.47059 7.39751 2.60504 7.85042 2.87395C8.30334 3.14286 8.64721 3.48319 8.88205 3.89496C9.11689 4.30673 9.23431 4.73949 9.23431 5.19328H12.0524C12.0356 4.20168 11.784 3.33194 11.2976 2.58403C10.8111 1.83613 10.1359 1.2521 9.27205 0.831933C8.40817 0.411763 7.40591 0.201681 6.26524 0.201681C5.1078 0.201681 4.09715 0.407561 3.23327 0.819328C2.36938 1.23109 1.69841 1.80672 1.22034 2.54622C0.742265 3.28572 0.511619 4.15126 0.528394 5.14286C0.528394 6.31933 0.868072 7.2689 1.54744 7.9916C2.22681 8.71429 3.24584 9.30252 4.60458 9.7563C4.94845 9.87395 5.28394 9.9874 5.61104 10.0966L6.56718 10.4118C7.18784 10.6134 7.73719 10.8403 8.21527 11.0924C8.69334 11.3445 9.07076 11.6639 9.34754 12.0504C9.62432 12.437 9.76271 12.9412 9.76271 13.563C9.76271 14.3361 9.47335 14.9706 8.89463 15.4664C8.31591 15.9622 7.51494 16.2101 6.4917 16.2101C5.33426 16.2101 4.43683 15.8824 3.7994 15.2269C3.16197 14.5714 2.83488 13.7731 2.8181 12.8319H0C0.0167745 13.9916 0.297743 14.9916 0.842914 15.8319C1.38809 16.6723 2.14712 17.3193 3.12004 17.7731ZM14.6073 18.1513V5.64706H17.2744V18.1513H14.6073ZM19.8293 5.64706V18.1513H22.4964V11.6975C22.4964 10.3865 22.8193 9.37815 23.4651 8.67227C24.111 7.96638 24.9287 7.61345 25.9184 7.61345C27.8978 7.61345 28.8875 8.82352 28.8875 11.2437V18.1513H31.5294V10.9664C31.5294 9.10083 31.0975 7.69748 30.2336 6.7563C29.3697 5.81512 28.183 5.34454 26.6732 5.34454C25.7003 5.34454 24.8406 5.56722 24.0942 6.0126C23.3477 6.45799 22.7816 7.06722 22.3958 7.84034L22.1945 5.64706H19.8293ZM38.8147 14.3193C38.1605 14.3193 37.5566 14.2437 37.0031 14.0924L35.9211 15.1513C36.1056 15.2689 36.3321 15.3697 36.6005 15.4538C36.8689 15.5378 37.2463 15.6134 37.7327 15.6807L38.1306 15.7311C38.5615 15.7815 39.0915 15.8319 39.7205 15.8824C41.3812 16.0336 42.5805 16.4328 43.3186 17.0798C44.0567 17.7269 44.4257 18.5882 44.4257 19.6639C44.4257 20.4034 44.2286 21.105 43.8344 21.7689C43.4402 22.4328 42.828 22.9706 41.9976 23.3824C41.1673 23.7941 40.1063 24 38.8147 24C37.0701 24 35.6569 23.6681 34.575 23.0042C33.493 22.3403 32.952 21.3361 32.952 19.9916C32.952 19.4706 33.0904 18.9538 33.3672 18.4412C33.644 17.9286 34.0843 17.4454 34.6882 16.9916C34.3359 16.8403 34.0298 16.6765 33.7698 16.5C33.5098 16.3235 33.2791 16.1429 33.0778 15.958V15.3529L35.2417 13.1345C34.2688 12.2941 33.7824 11.1933 33.7824 9.83193C33.7824 9.0084 33.9795 8.25631 34.3737 7.57563C34.7679 6.89495 35.3424 6.35294 36.0972 5.94958C36.8521 5.54622 37.7579 5.34454 38.8147 5.34454C39.5192 5.34454 40.1734 5.44538 40.7773 5.64706H45.4322V7.41176L43.218 7.53782C43.6206 8.22689 43.8219 8.99159 43.8219 9.83193C43.8219 10.6723 43.6248 11.4286 43.2306 12.1008C42.8364 12.7731 42.266 13.3109 41.5196 13.7143C40.7731 14.1176 39.8715 14.3193 38.8147 14.3193ZM40.6892 11.6092C40.2112 12.021 39.5863 12.2269 38.8147 12.2269C38.0263 12.2269 37.3931 12.021 36.915 11.6092C36.4369 11.1975 36.1979 10.6134 36.1979 9.85714C36.1979 9.08403 36.4369 8.4958 36.915 8.09244C37.3931 7.68907 38.0263 7.48739 38.8147 7.48739C39.5863 7.48739 40.2112 7.68907 40.6892 8.09244C41.1673 8.4958 41.4063 9.08403 41.4063 9.85714C41.4063 10.6134 41.1673 11.1975 40.6892 11.6092ZM35.4682 19.7395C35.4682 20.4622 35.7869 21.0042 36.4243 21.3655C37.0618 21.7269 37.8586 21.9076 38.8147 21.9076C39.7373 21.9076 40.4837 21.7101 41.0541 21.3151C41.6244 20.9202 41.9096 20.395 41.9096 19.7395C41.9096 19.2521 41.7167 18.8361 41.3309 18.4916C40.945 18.1471 40.2154 17.9328 39.1418 17.8487C38.3366 17.7983 37.6237 17.7227 37.0031 17.6218C36.416 17.9412 36.0134 18.2857 35.7953 18.6555C35.5772 19.0252 35.4682 19.3866 35.4682 19.7395ZM46.8548 0V18.1513H49.5219V0H46.8548ZM57.7633 18.4538C56.5388 18.4538 55.4527 18.1807 54.5049 17.6345C53.5571 17.0882 52.8149 16.3277 52.2781 15.3529C51.7413 14.3781 51.4729 13.2437 51.4729 11.9496C51.4729 10.6386 51.7371 9.4874 52.2655 8.4958C52.7939 7.5042 53.532 6.7311 54.4797 6.17647C55.4275 5.62185 56.5304 5.34454 57.7885 5.34454C59.013 5.34454 60.0782 5.61764 60.984 6.16387C61.8898 6.71009 62.5944 7.43697 63.0976 8.34454C63.6008 9.25211 63.8524 10.2521 63.8524 11.3445L63.8468 11.6975C63.845 11.7591 63.8427 11.8221 63.8399 11.8866L63.8021 12.5294H54.0897C54.1736 13.7395 54.572 14.6597 55.2849 15.2899C55.9978 15.9202 56.824 16.2353 57.7633 16.2353C58.5182 16.2353 59.1514 16.063 59.663 15.7185C60.1747 15.3739 60.5563 14.9076 60.8079 14.3193H63.475C63.1395 15.4958 62.4727 16.479 61.4747 17.2689C60.4766 18.0588 59.2395 18.4538 57.7633 18.4538ZM55.3981 8.33193C56.0859 7.80252 56.8743 7.53782 57.7633 7.53782C58.7195 7.53782 59.5162 7.82353 60.1537 8.39496C60.7911 8.96639 61.135 9.73949 61.1853 10.7143H54.1401C54.291 9.65546 54.7104 8.86135 55.3981 8.33193ZM70.559 18.1513C69.3344 18.1513 68.3615 17.8529 67.6402 17.2563C66.9189 16.6597 66.5583 15.5966 66.5583 14.0672V7.89076H64.4195V5.64706H66.5583L66.8854 2.47059H69.2254V5.64706H72.748V7.89076H69.2254V14.0672C69.2254 14.7563 69.3722 15.2311 69.6657 15.4916C69.9593 15.7521 70.4667 15.8824 71.188 15.8824H72.6222V18.1513H70.559ZM76.8252 17.6345C77.7729 18.1807 78.8423 18.4538 80.0333 18.4538C81.2243 18.4538 82.2978 18.1807 83.254 17.6345C84.2101 17.0882 84.9692 16.3235 85.5311 15.3403C86.093 14.3571 86.374 13.2101 86.374 11.8992C86.374 10.5882 86.093 9.44118 85.5311 8.45798C84.9692 7.47478 84.2143 6.71009 83.2666 6.16387C82.3188 5.61764 81.2494 5.34454 80.0585 5.34454C78.8842 5.34454 77.8191 5.61764 76.8629 6.16387C75.9068 6.71009 75.1478 7.47478 74.5858 8.45798C74.0239 9.44118 73.7429 10.5882 73.7429 11.8992C73.7429 13.2101 74.0197 14.3571 74.5732 15.3403C75.1268 16.3235 75.8774 17.0882 76.8252 17.6345ZM80.0333 16.1597C80.6707 16.1597 81.262 16 81.8072 15.6807C82.3524 15.3613 82.7927 14.8866 83.1282 14.2563C83.4637 13.626 83.6314 12.8403 83.6314 11.8992C83.6314 10.958 83.4679 10.1723 83.1408 9.54202C82.8137 8.91176 82.3775 8.43698 81.8323 8.11765C81.2872 7.79832 80.6959 7.63866 80.0585 7.63866C79.421 7.63866 78.8297 7.79832 78.2846 8.11765C77.7394 8.43698 77.2991 8.91176 76.9636 9.54202C76.6281 10.1723 76.4603 10.958 76.4603 11.8992C76.4603 12.8403 76.6281 13.626 76.9636 14.2563C77.2991 14.8866 77.7352 15.3613 78.272 15.6807C78.8088 16 79.3959 16.1597 80.0333 16.1597ZM90.665 5.64706H88.2999V18.1513H90.967V11.6975C90.967 10.3865 91.2899 9.37815 91.9357 8.67227C92.5815 7.96638 93.3993 7.61345 94.389 7.61345C96.3684 7.61345 97.358 8.82352 97.358 11.2437V18.1513H100V10.9664C100 9.10083 99.5681 7.69748 98.7042 6.7563C97.8403 5.81512 96.6535 5.34454 95.1438 5.34454C94.1709 5.34454 93.3112 5.56722 92.5647 6.0126C91.8183 6.45799 91.2522 7.06722 90.8663 7.84034L90.665 5.64706Z" fill="#111111"/>
</svg>
